<?xml version="1.0" encoding="utf-8"?>
<!-- Generator: Adobe Illustrator 24.0.1, SVG Export Plug-In . SVG Version: 6.00 Build 0)  -->
<svg version="1.1" id="Camada_1" xmlns="http://www.w3.org/2000/svg" xmlns:xlink="http://www.w3.org/1999/xlink" x="0px" y="0px"
	 viewBox="0 0 512 308.4" style="enable-background:new 0 0 512 308.4;" xml:space="preserve">
<style type="text/css">
	.st0{fill:#FFFFFF;}
</style>
<g>
	<path class="st0" d="M32.4,308.5c-10.3,0-18.5-3.4-24.6-10.2c-5.4-6.1-8.2-13.7-8.2-22.6c0-9,2.8-16.7,8.3-23
		c6.2-7,14.6-10.5,25.2-10.5c10.3,0,18.5,3.4,24.6,10.2c5.4,6.1,8.2,13.7,8.2,22.6c0,9-2.8,16.7-8.3,23
		C51.4,305,43,308.5,32.4,308.5z M33.9,255.9c-6.1,0-11,2-14.6,6.1c-3.3,3.7-4.9,8.1-4.9,13.4c0,5.1,1.5,9.4,4.6,12.9
		c3.5,3.9,8.2,5.8,14.1,5.8c6.1,0,11-2,14.6-6.1c3.2-3.7,4.9-8.1,4.9-13.4c0-5.1-1.5-9.4-4.6-12.9C44.5,257.9,39.8,255.9,33.9,255.9
		z"/>
	<path class="st0" d="M94.6,308.5l-15.7-0.1v-36.7c0-5.6,1-10.5,3.1-14.6c2.1-4.1,5.3-7.7,9.8-10.7c2.8-1.9,5.3-3.2,7.7-4
		c2.4-0.8,5.1-1.2,7.9-1.2c0.7,0,1.6,0,2.6,0.1c1,0.1,2.2,0.2,3.4,0.5v14.9c-1.4-0.4-2.9-0.6-4.4-0.6c-2.9,0-5.7,1-8.4,3
		c-2,1.4-3.5,3-4.5,4.8c-1,1.8-1.6,3.9-1.6,6.2L94.6,308.5L94.6,308.5z"/>
	<path class="st0" d="M158.3,245c8.8,0,16.4,3.1,22.6,9.4c6.3,6.3,9.4,13.8,9.4,22.6c0,8.6-3,16-8.9,22.2s-13.2,9.2-21.8,9.2
		c-8.9,0-16.6-2.8-23.1-8.4c-6.7-5.8-10-12.9-10-21.5v-54.2h13.3v53.8c0,4.8,1.9,8.9,5.7,12.3s8.1,5.1,13.1,5.1c0.4,0,0.8,0,1,0
		c0.3,0,0.9-0.1,1.7-0.2c4.5-0.7,8.1-2.9,10.9-6.5c2.8-3.7,4.2-7.9,4.2-12.6c0-1.2-0.1-2.6-0.4-4.1c-0.9-4.3-3.1-7.6-6.6-9.9
		c-3.1-2.1-6.7-3.2-10.9-3.2c-2.9,0-5.7,0.5-8.3,1.6c-2.6,1.1-4.7,2.6-6.4,4.7V249c2.7-1.5,5.1-2.6,7.1-3.2
		C152.9,245.3,155.4,245,158.3,245z"/>
	<path class="st0" d="M211.3,242c-2.7,0-4.8-0.9-6.3-2.6s-2.3-3.8-2.3-6.1c0-2.3,0.7-4.3,2.2-5.9c1.5-1.6,3.6-2.4,6.4-2.4
		c2.5,0,4.5,0.9,6,2.7c1.4,1.6,2,3.6,2,5.9c0,2.2-0.7,4.2-2.1,5.9C215.8,241.2,213.8,242,211.3,242z M204,246.2h14.3v62.2H204V246.2
		z"/>
	<path class="st0" d="M234.6,224.3h14.1v16.9h9.8V256h-9.8v28c0,1.5,0.3,2.8,0.8,4s1.4,2.3,2.6,3.5c2.2,2.2,4.9,3.4,7.9,3.4
		c1,0,1.8,0,2.4,0v13.7c-0.4,0-0.8,0-1.3,0s-0.8,0-1,0c-2.5,0-5-0.4-7.4-1.2c-3-1-6.3-2.7-9.9-5.1c-2.2-1.5-4.1-3.9-5.6-7.1
		c-1.7-3.5-2.6-7.1-2.6-10.8L234.6,224.3L234.6,224.3z"/>
	<path class="st0" d="M281.1,208.3h19.2v41.1h26.2v-41.1H345v100h-18.6v-40.5h-26.2v40.5h-19.2V208.3z"/>
	<path class="st0" d="M366.5,208.3h18.6v68.3c0,3.8,1.4,7,4.1,9.6c2.8,2.6,6,3.9,9.8,3.9c4.1,0,7.7-1.3,10.8-4
		c3.1-2.6,4.6-5.9,4.6-9.9v-68.1h18v68.2c0,8.9-3.4,16.5-10.1,22.6s-14.7,9.2-23.9,9.2c-8.8,0-16.3-3.2-22.6-9.5
		c-6.3-6.3-9.4-13.9-9.4-22.9V208.3z"/>
	<path class="st0" d="M506.6,262.9c1.8,2.6,3.1,5,3.9,7.3c0.8,2.3,1.2,4.9,1.2,7.7c0,8.3-2.7,15.5-8.1,21.7
		c-5.4,6.1-12.1,9.2-20.1,9.2H450V208.4h34.1c6.4,0,11.8,2.3,16.3,6.9c4.5,4.6,6.7,10.2,6.7,16.7c0,2.6-0.2,4.7-0.6,6.3
		c-0.4,1.6-1.2,3.5-2.5,5.7c-1,1.8-2.7,3.7-5,5.6c-1.7,1.5-2.9,2.5-3.6,3.2l2.6,1.8c2.5,1.7,4.2,3.1,5.1,3.9
		C504.1,259.5,505.2,260.9,506.6,262.9z M467.9,246.5h10.4c2.7,0,5-1.1,6.9-3.1c1.9-2.1,2.9-4.6,2.9-7.4c0-2.7-0.8-5-2.4-7
		c-1.6-2-3.6-3-6-3h-11.8V246.5z M467.9,290.4h10.1c4.2,0,7.9-1.2,11-3.7s4.7-5.6,4.7-9.5c0-3.7-1.4-6.9-4.2-9.4
		c-2.8-2.5-6.1-3.8-10-3.8h-11.6L467.9,290.4L467.9,290.4z"/>
</g>
<g>
	<circle class="st0" cx="243.7" cy="67.2" r="12.9"/>
	<path class="st0" d="M245.4,0.4c-50,0-90.5,40.5-90.5,90.5c0,38.1,23.6,70.7,57,84c16.3-21.8,18.2-45.8,21.4-60
		c0.2-1-16.7,4.4-14.1,1.6c7-7.6,11.5-9.8,14.6-11.7c5,1.5,13.2,2.1,20.1,0c3.6,1.9,7.8,4.3,14.5,11.3c1.1,1.2-13.1-1.1-12.9-0.4
		c3.7,14.7,7,38.3,25.4,58.4c32.3-13.8,55-45.9,55-83.2C335.9,40.9,295.4,0.4,245.4,0.4z M266.8,95c-8.9,7.4-23,6.1-23,6.1
		s-14.1,1.3-23-6.1c0,0-22.2,13.3-22.2,5.9s1.5-23.7,7.4-28.2c5.9-4.4,10.4-4.4,11.9-11.9c1.5-7.4,5.2-41.5,26-50.4
		c20.8,8.9,24.5,43,26,50.4c1.5,7.4,5.9,7.4,11.9,11.9c5.9,4.4,7.4,20.8,7.4,28.2C289.1,108.3,266.8,95,266.8,95z"/>
</g>
</svg>
